<mxfile host="app.diagrams.net" modified="2022-05-06T08:36:30.710Z" agent="5.0 (Macintosh; Intel Mac OS X 10_15_7) AppleWebKit/605.1.15 (KHTML, like Gecko) Version/15.4 Safari/605.1.15" etag="Q657dk2B7Y4bIktTicV6" version="17.4.6" type="github">
  <diagram id="rVJ_7FO1rf4wiXz7svbB" name="Page-1">
    <mxGraphModel dx="801" dy="790" grid="1" gridSize="10" guides="1" tooltips="1" connect="1" arrows="1" fold="1" page="1" pageScale="1" pageWidth="850" pageHeight="1100" math="0" shadow="0">
      <root>
        <mxCell id="0" />
        <mxCell id="1" parent="0" />
        <mxCell id="F9aMHYz11MQBcgvr0L_D-37" value="" style="rounded=0;whiteSpace=wrap;html=1;" parent="1" vertex="1">
          <mxGeometry x="240" y="360" width="320" height="300" as="geometry" />
        </mxCell>
        <mxCell id="F9aMHYz11MQBcgvr0L_D-36" style="edgeStyle=orthogonalEdgeStyle;rounded=0;orthogonalLoop=1;jettySize=auto;html=1;exitX=0.632;exitY=0.99;exitDx=0;exitDy=0;entryX=0.5;entryY=0;entryDx=0;entryDy=0;exitPerimeter=0;" parent="1" source="F9aMHYz11MQBcgvr0L_D-2" target="F9aMHYz11MQBcgvr0L_D-31" edge="1">
          <mxGeometry relative="1" as="geometry" />
        </mxCell>
        <mxCell id="F9aMHYz11MQBcgvr0L_D-2" value="&lt;b&gt;var someName = {get set}&lt;/b&gt;" style="rounded=0;whiteSpace=wrap;html=1;" parent="1" vertex="1">
          <mxGeometry x="245" y="170" width="310" height="50" as="geometry" />
        </mxCell>
        <mxCell id="F9aMHYz11MQBcgvr0L_D-26" style="edgeStyle=orthogonalEdgeStyle;rounded=0;orthogonalLoop=1;jettySize=auto;html=1;exitX=0.75;exitY=1;exitDx=0;exitDy=0;entryX=0.5;entryY=0;entryDx=0;entryDy=0;dashed=1;" parent="1" source="F9aMHYz11MQBcgvr0L_D-4" target="F9aMHYz11MQBcgvr0L_D-7" edge="1">
          <mxGeometry relative="1" as="geometry" />
        </mxCell>
        <mxCell id="F9aMHYz11MQBcgvr0L_D-33" style="edgeStyle=orthogonalEdgeStyle;rounded=0;orthogonalLoop=1;jettySize=auto;html=1;exitX=0.25;exitY=0;exitDx=0;exitDy=0;entryX=0.5;entryY=1;entryDx=0;entryDy=0;" parent="1" source="F9aMHYz11MQBcgvr0L_D-4" target="F9aMHYz11MQBcgvr0L_D-30" edge="1">
          <mxGeometry relative="1" as="geometry" />
        </mxCell>
        <mxCell id="F9aMHYz11MQBcgvr0L_D-4" value="wrappedValue" style="rounded=0;whiteSpace=wrap;html=1;" parent="1" vertex="1">
          <mxGeometry x="320" y="380" width="160" height="30" as="geometry" />
        </mxCell>
        <mxCell id="F9aMHYz11MQBcgvr0L_D-28" style="edgeStyle=orthogonalEdgeStyle;rounded=0;orthogonalLoop=1;jettySize=auto;html=1;exitX=0.25;exitY=0;exitDx=0;exitDy=0;dashed=1;" parent="1" source="F9aMHYz11MQBcgvr0L_D-5" target="F9aMHYz11MQBcgvr0L_D-6" edge="1">
          <mxGeometry relative="1" as="geometry" />
        </mxCell>
        <mxCell id="F9aMHYz11MQBcgvr0L_D-5" value="privateStore" style="rounded=0;whiteSpace=wrap;html=1;" parent="1" vertex="1">
          <mxGeometry x="320" y="530" width="160" height="30" as="geometry" />
        </mxCell>
        <mxCell id="F9aMHYz11MQBcgvr0L_D-29" style="edgeStyle=orthogonalEdgeStyle;rounded=0;orthogonalLoop=1;jettySize=auto;html=1;exitX=0.5;exitY=0;exitDx=0;exitDy=0;entryX=0.25;entryY=1;entryDx=0;entryDy=0;dashed=1;" parent="1" source="F9aMHYz11MQBcgvr0L_D-6" target="F9aMHYz11MQBcgvr0L_D-4" edge="1">
          <mxGeometry relative="1" as="geometry" />
        </mxCell>
        <mxCell id="F9aMHYz11MQBcgvr0L_D-6" value="get" style="rhombus;whiteSpace=wrap;html=1;dashed=1;" parent="1" vertex="1">
          <mxGeometry x="330" y="440" width="60" height="60" as="geometry" />
        </mxCell>
        <mxCell id="F9aMHYz11MQBcgvr0L_D-27" style="edgeStyle=orthogonalEdgeStyle;rounded=0;orthogonalLoop=1;jettySize=auto;html=1;exitX=0.5;exitY=1;exitDx=0;exitDy=0;entryX=0.75;entryY=0;entryDx=0;entryDy=0;dashed=1;" parent="1" source="F9aMHYz11MQBcgvr0L_D-7" target="F9aMHYz11MQBcgvr0L_D-5" edge="1">
          <mxGeometry relative="1" as="geometry" />
        </mxCell>
        <mxCell id="F9aMHYz11MQBcgvr0L_D-7" value="set" style="rhombus;whiteSpace=wrap;html=1;dashed=1;" parent="1" vertex="1">
          <mxGeometry x="410" y="440" width="60" height="60" as="geometry" />
        </mxCell>
        <mxCell id="F9aMHYz11MQBcgvr0L_D-14" value="var _someName = &amp;nbsp;Wrapped()" style="text;html=1;align=center;verticalAlign=middle;whiteSpace=wrap;rounded=0;fontStyle=1" parent="1" vertex="1">
          <mxGeometry x="310" y="570" width="180" height="30" as="geometry" />
        </mxCell>
        <mxCell id="F9aMHYz11MQBcgvr0L_D-35" style="edgeStyle=orthogonalEdgeStyle;rounded=0;orthogonalLoop=1;jettySize=auto;html=1;exitX=0.5;exitY=0;exitDx=0;exitDy=0;entryX=0.371;entryY=0.99;entryDx=0;entryDy=0;entryPerimeter=0;" parent="1" source="F9aMHYz11MQBcgvr0L_D-30" target="F9aMHYz11MQBcgvr0L_D-2" edge="1">
          <mxGeometry relative="1" as="geometry" />
        </mxCell>
        <mxCell id="F9aMHYz11MQBcgvr0L_D-30" value="get" style="rhombus;whiteSpace=wrap;html=1;" parent="1" vertex="1">
          <mxGeometry x="330" y="270" width="60" height="60" as="geometry" />
        </mxCell>
        <mxCell id="F9aMHYz11MQBcgvr0L_D-34" style="edgeStyle=orthogonalEdgeStyle;rounded=0;orthogonalLoop=1;jettySize=auto;html=1;exitX=0.5;exitY=1;exitDx=0;exitDy=0;entryX=0.75;entryY=0;entryDx=0;entryDy=0;" parent="1" source="F9aMHYz11MQBcgvr0L_D-31" target="F9aMHYz11MQBcgvr0L_D-4" edge="1">
          <mxGeometry relative="1" as="geometry" />
        </mxCell>
        <mxCell id="F9aMHYz11MQBcgvr0L_D-31" value="set" style="rhombus;whiteSpace=wrap;html=1;" parent="1" vertex="1">
          <mxGeometry x="410" y="270" width="60" height="60" as="geometry" />
        </mxCell>
        <mxCell id="F9aMHYz11MQBcgvr0L_D-45" style="edgeStyle=orthogonalEdgeStyle;rounded=0;orthogonalLoop=1;jettySize=auto;html=1;exitX=0.645;exitY=0;exitDx=0;exitDy=0;entryX=0.5;entryY=1;entryDx=0;entryDy=0;exitPerimeter=0;fillColor=#f5f5f5;strokeColor=#666666;" parent="1" source="F9aMHYz11MQBcgvr0L_D-39" target="F9aMHYz11MQBcgvr0L_D-42" edge="1">
          <mxGeometry relative="1" as="geometry" />
        </mxCell>
        <mxCell id="F9aMHYz11MQBcgvr0L_D-39" value="&lt;b&gt;var $someName = {get set}&lt;/b&gt;" style="rounded=0;whiteSpace=wrap;html=1;fillColor=#f5f5f5;fontColor=#333333;strokeColor=#666666;" parent="1" vertex="1">
          <mxGeometry x="245" y="780" width="310" height="50" as="geometry" />
        </mxCell>
        <mxCell id="F9aMHYz11MQBcgvr0L_D-40" style="edgeStyle=orthogonalEdgeStyle;rounded=0;orthogonalLoop=1;jettySize=auto;html=1;exitX=0.5;exitY=1;exitDx=0;exitDy=0;entryX=0.368;entryY=0;entryDx=0;entryDy=0;entryPerimeter=0;fillColor=#f5f5f5;strokeColor=#666666;" parent="1" source="F9aMHYz11MQBcgvr0L_D-41" target="F9aMHYz11MQBcgvr0L_D-39" edge="1">
          <mxGeometry relative="1" as="geometry">
            <Array as="points">
              <mxPoint x="360" y="770" />
            </Array>
          </mxGeometry>
        </mxCell>
        <mxCell id="F9aMHYz11MQBcgvr0L_D-41" value="get" style="rhombus;whiteSpace=wrap;html=1;fillColor=#f5f5f5;fontColor=#333333;strokeColor=#666666;" parent="1" vertex="1">
          <mxGeometry x="330" y="690" width="60" height="60" as="geometry" />
        </mxCell>
        <mxCell id="F9aMHYz11MQBcgvr0L_D-47" style="edgeStyle=orthogonalEdgeStyle;rounded=0;orthogonalLoop=1;jettySize=auto;html=1;exitX=0.5;exitY=0;exitDx=0;exitDy=0;entryX=0.75;entryY=1;entryDx=0;entryDy=0;" parent="1" source="F9aMHYz11MQBcgvr0L_D-42" target="F9aMHYz11MQBcgvr0L_D-43" edge="1">
          <mxGeometry relative="1" as="geometry" />
        </mxCell>
        <mxCell id="F9aMHYz11MQBcgvr0L_D-42" value="set" style="rhombus;whiteSpace=wrap;html=1;fillColor=#f5f5f5;fontColor=#333333;strokeColor=#666666;" parent="1" vertex="1">
          <mxGeometry x="410" y="690" width="60" height="60" as="geometry" />
        </mxCell>
        <mxCell id="F9aMHYz11MQBcgvr0L_D-46" style="edgeStyle=orthogonalEdgeStyle;rounded=0;orthogonalLoop=1;jettySize=auto;html=1;exitX=0.25;exitY=1;exitDx=0;exitDy=0;entryX=0.5;entryY=0;entryDx=0;entryDy=0;" parent="1" source="F9aMHYz11MQBcgvr0L_D-43" target="F9aMHYz11MQBcgvr0L_D-41" edge="1">
          <mxGeometry relative="1" as="geometry" />
        </mxCell>
        <mxCell id="F9aMHYz11MQBcgvr0L_D-43" value="projectValue(option)" style="rounded=0;whiteSpace=wrap;html=1;fillColor=#f5f5f5;fontColor=#333333;strokeColor=#666666;" parent="1" vertex="1">
          <mxGeometry x="320" y="600" width="160" height="30" as="geometry" />
        </mxCell>
        <mxCell id="F9aMHYz11MQBcgvr0L_D-49" style="edgeStyle=orthogonalEdgeStyle;rounded=0;orthogonalLoop=1;jettySize=auto;html=1;exitX=1;exitY=0.5;exitDx=0;exitDy=0;entryX=0;entryY=0.5;entryDx=0;entryDy=0;" parent="1" source="F9aMHYz11MQBcgvr0L_D-48" target="F9aMHYz11MQBcgvr0L_D-14" edge="1">
          <mxGeometry relative="1" as="geometry" />
        </mxCell>
        <mxCell id="F9aMHYz11MQBcgvr0L_D-50" style="edgeStyle=orthogonalEdgeStyle;rounded=0;orthogonalLoop=1;jettySize=auto;html=1;exitX=1;exitY=0.5;exitDx=0;exitDy=0;entryX=0;entryY=0.5;entryDx=0;entryDy=0;" parent="1" source="F9aMHYz11MQBcgvr0L_D-48" target="F9aMHYz11MQBcgvr0L_D-2" edge="1">
          <mxGeometry relative="1" as="geometry" />
        </mxCell>
        <mxCell id="F9aMHYz11MQBcgvr0L_D-51" style="edgeStyle=orthogonalEdgeStyle;rounded=0;orthogonalLoop=1;jettySize=auto;html=1;exitX=1;exitY=0.5;exitDx=0;exitDy=0;entryX=0;entryY=0.5;entryDx=0;entryDy=0;" parent="1" source="F9aMHYz11MQBcgvr0L_D-48" target="F9aMHYz11MQBcgvr0L_D-39" edge="1">
          <mxGeometry relative="1" as="geometry" />
        </mxCell>
        <mxCell id="F9aMHYz11MQBcgvr0L_D-48" value="Compiler" style="rounded=0;whiteSpace=wrap;html=1;" parent="1" vertex="1">
          <mxGeometry x="20" y="555" width="120" height="60" as="geometry" />
        </mxCell>
      </root>
    </mxGraphModel>
  </diagram>
</mxfile>
